<?xml version="1.0" encoding="UTF-8" standalone="no"?>
<!-- Created with Inkscape (http://www.inkscape.org/) -->

<svg
   width="900"
   height="300"
   viewBox="0 0 900 300.00001"
   version="1.1"
   id="svg5"
   inkscape:export-filename="C:\Users\Nathan\Documents\GitHub\links\src\assets\instagram.png"
   inkscape:export-xdpi="96"
   inkscape:export-ydpi="96"
   sodipodi:docname="instagram.svg"
   inkscape:version="1.1.1 (3bf5ae0d25, 2021-09-20)"
   xmlns:inkscape="http://www.inkscape.org/namespaces/inkscape"
   xmlns:sodipodi="http://sodipodi.sourceforge.net/DTD/sodipodi-0.dtd"
   xmlns="http://www.w3.org/2000/svg"
   xmlns:svg="http://www.w3.org/2000/svg">
  <sodipodi:namedview
     id="namedview7"
     pagecolor="#df7861"
     bordercolor="#666666"
     borderopacity="1.0"
     inkscape:pageshadow="2"
     inkscape:pageopacity="1"
     inkscape:pagecheckerboard="0"
     inkscape:document-units="mm"
     showgrid="false"
     units="px"
     inkscape:zoom="0.73406285"
     inkscape:cx="517.66685"
     inkscape:cy="-40.187295"
     inkscape:window-width="1440"
     inkscape:window-height="877"
     inkscape:window-x="-8"
     inkscape:window-y="-8"
     inkscape:window-maximized="1"
     inkscape:current-layer="layer1" />
  <defs
     id="defs2" />
  <g
     inkscape:label="Camada 1"
     inkscape:groupmode="layer"
     id="layer1">
    <path
       d="m 450,84.605683 c 21.29953,0 23.82569,0.07976 32.24179,0.465347 21.61862,0.983871 31.71661,11.241418 32.70049,32.70047 0.38557,8.40946 0.45869,10.93562 0.45869,32.23514 0,21.30618 -0.0798,23.82568 -0.45869,32.23514 -0.99052,21.43913 -11.06193,31.71661 -32.70049,32.70048 -8.4161,0.38558 -10.92896,0.46535 -32.24179,0.46535 -21.29952,0 -23.82568,-0.0798 -32.23513,-0.46535 -21.6718,-0.99051 -31.71661,-11.2946 -32.70049,-32.70712 -0.38557,-8.40946 -0.46534,-10.92898 -0.46534,-32.23515 0,-21.29952 0.0864,-23.81903 0.46534,-32.23513 0.99052,-21.452412 11.06193,-31.716602 32.70049,-32.700474 8.4161,-0.378931 10.93561,-0.458703 32.23513,-0.458703 z m 0,-14.379169 c -21.66515,0 -24.37745,0.09307 -32.88662,0.478641 -28.97107,1.329558 -45.07202,17.403915 -46.40158,46.401585 -0.39222,8.5158 -0.48529,11.2281 -0.48529,32.89325 0,21.66515 0.0931,24.3841 0.47864,32.89327 1.32956,28.97108 17.40392,45.07203 46.40159,46.40159 8.51581,0.38557 11.22811,0.47864 32.89326,0.47864 21.66515,0 24.38411,-0.0931 32.89328,-0.47864 28.94448,-1.32956 45.08532,-17.40392 46.39494,-46.40159 0.39221,-8.50917 0.48528,-11.22812 0.48528,-32.89327 0,-21.66515 -0.0931,-24.37745 -0.47864,-32.88661 C 527.99189,88.168902 511.89759,72.041361 482.89993,70.711803 474.38411,70.319583 471.66515,70.226514 450,70.226514 Z m 0,38.809806 c -22.62243,0 -40.96368,18.34124 -40.96368,40.96367 0,22.62244 18.34125,40.97035 40.96368,40.97035 22.62244,0 40.96369,-18.34127 40.96369,-40.97035 0,-22.62243 -18.34125,-40.96367 -40.96369,-40.96367 z m 0,67.55483 c -14.68496,0 -26.59116,-11.89954 -26.59116,-26.59116 0,-14.68496 11.9062,-26.59116 26.59116,-26.59116 14.68497,0 26.59117,11.9062 26.59117,26.59116 0,14.69162 -11.9062,26.59116 -26.59117,26.59116 z m 42.58575,-78.743068 c -5.29163,0 -9.57947,4.287828 -9.57947,9.572818 0,5.28499 4.28784,9.57283 9.57947,9.57283 5.285,0 9.56617,-4.28784 9.56617,-9.57283 0,-5.28499 -4.28117,-9.572818 -9.56617,-9.572818 z"
       id="path836"
       style="stroke-width:6.64779;fill:#fcf8e8;fill-opacity:1" />
  </g>
</svg>
