<?xml version="1.0" encoding="UTF-8" standalone="no"?>
<!-- Created with Inkscape (http://www.inkscape.org/) -->

<svg
   width="900"
   height="300"
   viewBox="0 0 900 300.00001"
   version="1.1"
   id="svg5"
   inkscape:export-filename="C:\Users\Nathan\Documents\GitHub\links\src\assets\inter.png"
   inkscape:export-xdpi="96"
   inkscape:export-ydpi="96"
   sodipodi:docname="inter.svg"
   inkscape:version="1.1.1 (3bf5ae0d25, 2021-09-20)"
   xmlns:inkscape="http://www.inkscape.org/namespaces/inkscape"
   xmlns:sodipodi="http://sodipodi.sourceforge.net/DTD/sodipodi-0.dtd"
   xmlns="http://www.w3.org/2000/svg"
   xmlns:svg="http://www.w3.org/2000/svg">
  <sodipodi:namedview
     id="namedview7"
     pagecolor="#f27500"
     bordercolor="#666666"
     borderopacity="1.0"
     inkscape:pageshadow="2"
     inkscape:pageopacity="1"
     inkscape:pagecheckerboard="0"
     inkscape:document-units="mm"
     showgrid="false"
     units="px"
     inkscape:zoom="0.73406285"
     inkscape:cx="499.95719"
     inkscape:cy="29.289045"
     inkscape:window-width="1876"
     inkscape:window-height="1009"
     inkscape:window-x="1432"
     inkscape:window-y="-8"
     inkscape:window-maximized="1"
     inkscape:current-layer="layer1" />
  <defs
     id="defs2" />
  <g
     inkscape:label="Camada 1"
     inkscape:groupmode="layer"
     id="layer1">
    <g
       id="g12740"
       transform="matrix(0.32496145,0,0,0.32496145,287.51928,91.961888)"
       style="fill:#fcf8e8;fill-opacity:1">
      <path
         id="path2"
         class="st0"
         d="m 40.8,29.2 v 9.5 c 0.6,15.9 14.1,28.6 30.9,29.2 h 5.2 C 93.7,67.3 107.2,54.6 107.8,38.7 V 29.2 C 107.2,13.3 93.7,0.6 76.9,0 H 71.7 C 54.9,0.6 41.4,13.3 40.8,29.2 Z m 438.8,112.5 v 130.1 c 0,22.6 8.7,32.8 36.3,32.8 11.6,0 22.9,-3.2 29.7,-5.6 v 52.4 c -11.6,3.9 -29.2,5.8 -43.7,5.8 -58,0 -85.4,-29 -85.4,-79.2 V 15.5 h 63.1 V 99 h 66 v 42.7 z"
         style="fill:#fcf8e8;fill-opacity:1" />
      <path
         id="path4"
         d="m 567,220.8 c 0,-77.1 48.6,-129.6 126.4,-129.6 83.1,0 124.3,60.6 119.9,148.5 H 631.8 c 3.3,45.1 24.4,68 61.9,68 31.7,0 48.5,-15.3 55.8,-36.9 h 61.7 c -12,53 -53.9,86.4 -117.8,86.4 -78.8,0 -126.4,-52 -126.4,-130.1 z m 125.9,-79 c -34.6,0 -55.3,18.5 -61.1,55.3 l 118.1,-1 c -3.4,-34.3 -21.9,-54.3 -57,-54.3 z"
         style="clip-rule:evenodd;fill:#fcf8e8;fill-rule:evenodd;fill-opacity:1" />
      <path
         id="path6"
         class="st0"
         d="m 289.8,91.3 c -40.6,0 -65.6,24 -78.2,47.6 L 208.7,99 h -60.2 v 250.5 h 63.1 V 208.7 c 0,-41.6 22,-67 55.3,-67 33.3,0 45.6,22 45.6,60.2 v 147.6 h 63.1 V 188.3 c 0.2,-55.9 -24,-97 -85.8,-97 z m 621.9,47.5 c 16,-31.4 48.7,-47.6 73.3,-47.6 4.4,0 11.3,0.6 15,1.4 v 49 c -6.1,-0.6 -12.2,-0.9 -18.3,-1 -44.9,0 -70,27 -70,72.8 V 349.3 H 848.6 V 99 h 61.2 z M 0,99 v 42.7 h 42.7 v 207.8 h 63.1 V 99 Z"
         style="fill:#fcf8e8;fill-opacity:1" />
    </g>
  </g>
  <style
     id="style12726">.st0{fill:#ff7a00}</style>
</svg>
