<?xml version="1.0" encoding="UTF-8" standalone="no"?>
<!-- Created with Inkscape (http://www.inkscape.org/) -->

<svg
   width="900"
   height="300"
   viewBox="0 0 900 300.00001"
   version="1.1"
   id="svg5"
   inkscape:export-filename="C:\Users\Nathan\Documents\GitHub\links\src\assets\linkedin.png"
   inkscape:export-xdpi="96"
   inkscape:export-ydpi="96"
   sodipodi:docname="linkedin.svg"
   inkscape:version="1.1.1 (3bf5ae0d25, 2021-09-20)"
   xmlns:inkscape="http://www.inkscape.org/namespaces/inkscape"
   xmlns:sodipodi="http://sodipodi.sourceforge.net/DTD/sodipodi-0.dtd"
   xmlns="http://www.w3.org/2000/svg"
   xmlns:svg="http://www.w3.org/2000/svg">
  <sodipodi:namedview
     id="namedview7"
     pagecolor="#1572a1"
     bordercolor="#666666"
     borderopacity="1.0"
     inkscape:pageshadow="2"
     inkscape:pageopacity="1"
     inkscape:pagecheckerboard="0"
     inkscape:document-units="mm"
     showgrid="false"
     units="px"
     inkscape:zoom="1.4681257"
     inkscape:cx="483.60982"
     inkscape:cy="123.62702"
     inkscape:window-width="1440"
     inkscape:window-height="877"
     inkscape:window-x="-8"
     inkscape:window-y="-8"
     inkscape:window-maximized="1"
     inkscape:current-layer="layer1" />
  <defs
     id="defs2" />
  <g
     inkscape:label="Camada 1"
     inkscape:groupmode="layer"
     id="layer1">
    <path
       d="m 495.93854,71.248223 h -91.87707 c -18.11947,0 -32.81324,14.693772 -32.81324,32.813237 v 91.87708 c 0,18.11947 14.69377,32.81324 32.81324,32.81324 h 91.87707 c 18.12603,0 32.81325,-14.69377 32.81325,-32.81324 v -91.87708 c 0,-18.119465 -14.68722,-32.813237 -32.81325,-32.813237 z M 423.74942,195.93854 h -19.68795 v -72.18913 h 19.68795 z m -9.84398,-80.51057 c -6.33952,0 -11.48463,-5.1845 -11.48463,-11.57652 0,-6.392007 5.14511,-11.576502 11.48463,-11.576502 6.33953,0 11.48464,5.184495 11.48464,11.576502 0,6.39202 -5.13856,11.57652 -11.48464,11.57652 z m 88.59575,80.51057 h -19.68794 v -36.77708 c 0,-22.10301 -26.25059,-20.42953 -26.25059,0 v 36.77708 h -19.68795 v -72.18913 h 19.68795 v 11.58307 c 9.16145,-16.971 45.93853,-18.22447 45.93853,16.24913 z"
       id="path7265"
       style="stroke-width:6.56264;fill:#fcf8e8;fill-opacity:1" />
  </g>
</svg>
